<?xml version="1.0" standalone="no"?>
<!DOCTYPE svg PUBLIC "-//W3C//DTD SVG 20010904//EN"
 "http://www.w3.org/TR/2001/REC-SVG-20010904/DTD/svg10.dtd">
<svg version="1.0" xmlns="http://www.w3.org/2000/svg"
 width="current" height="current" viewBox="0 0 200.000000 50.000000"
 preserveAspectRatio="xMidYMid meet">

<g transform="translate(0.000000,50.000000) scale(0.100000,-0.100000)"
fill="#000000" stroke="none">
<path d="M186 396 c-22 -8 -53 -29 -70 -45 -28 -28 -31 -38 -34 -103 -2 -59 1
-79 17 -105 49 -78 132 -89 246 -34 45 21 89 34 123 36 29 2 60 9 68 16 40 33
55 104 33 152 -16 34 -53 53 -144 70 -128 25 -195 29 -239 13z m205 -22 c131
-22 179 -53 166 -106 -9 -33 -43 -47 -99 -41 -40 5 -54 1 -105 -31 -75 -46
-119 -54 -178 -31 -73 27 -98 105 -54 167 43 60 107 70 270 42z m169 -154 c0
-6 -11 -22 -25 -35 -19 -20 -34 -25 -74 -25 -36 0 -69 -10 -122 -35 -79 -38
-121 -43 -172 -22 -36 16 -51 32 -62 65 -6 22 -6 22 32 -4 34 -23 46 -25 105
-22 57 3 75 9 115 37 42 30 54 33 108 32 33 0 67 4 75 9 19 12 20 12 20 0z"/>
<path d="M160 343 c-47 -42 -48 -93 -2 -134 50 -45 136 -36 209 21 17 14 41
20 72 20 57 0 84 17 79 51 -5 35 -86 60 -219 66 l-106 6 -33 -30z m213 3 c118
-20 170 -54 114 -75 -13 -5 -35 -7 -50 -4 -20 4 -44 -4 -88 -32 -48 -30 -71
-37 -111 -38 -43 -1 -54 3 -74 27 -38 43 -28 92 24 120 34 19 75 19 185 2z"/>
<path d="M208 329 c-26 -15 -22 -48 7 -61 52 -24 105 35 56 62 -24 12 -41 12
-63 -1z m60 -31 c3 -14 -3 -18 -27 -18 -29 0 -41 17 -24 34 13 13 48 1 51 -16z"/>
<path d="M661 306 c-18 -21 -10 -49 17 -61 30 -13 28 -27 -3 -19 -20 5 -25 3
-25 -14 0 -23 36 -36 75 -26 43 11 44 66 2 80 -21 7 -21 8 3 14 14 3 25 12 25
20 0 21 -78 26 -94 6z"/>
<path d="M1207 313 c-4 -3 -7 -33 -7 -65 0 -58 0 -58 30 -58 19 0 30 5 30 14
0 7 14 16 30 20 19 3 31 12 32 23 3 34 -3 57 -15 65 -15 9 -91 11 -100 1z m60
-55 c-3 -7 -5 -2 -5 12 0 14 2 19 5 13 2 -7 2 -19 0 -25z"/>
<path d="M808 293 l-38 -4 0 -65 c0 -62 1 -64 25 -64 16 0 25 6 25 16 0 10 6
14 14 11 25 -10 48 17 49 57 1 33 -15 60 -33 54 -3 -1 -22 -3 -42 -5z m19 -70
c-3 -10 -5 -2 -5 17 0 19 2 27 5 18 2 -10 2 -26 0 -35z"/>
<path d="M927 291 c-25 -9 -23 -25 5 -33 23 -6 23 -6 1 -7 -31 -1 -48 -35 -27
-55 18 -19 26 -20 41 -5 7 7 13 7 17 1 3 -6 15 -8 26 -5 16 4 20 14 20 43 0
50 -39 79 -83 61z"/>
<path d="M1058 293 l-38 -4 0 -50 c0 -45 2 -49 24 -49 22 0 25 5 29 43 l4 42
1 -42 c2 -38 5 -43 26 -43 22 0 25 5 29 43 l4 42 1 -42 c2 -39 5 -43 27 -43
23 0 25 4 25 44 0 52 -18 73 -49 57 -13 -7 -22 -8 -26 -1 -3 5 -9 9 -13 8 -4
-1 -24 -3 -44 -5z"/>
<path d="M1372 292 c-26 -4 -46 -44 -36 -74 7 -24 48 -40 80 -32 33 8 31 34
-3 35 -21 1 -23 2 -8 6 11 3 26 12 33 21 10 13 12 10 12 -21 0 -34 2 -37 30
-37 27 0 30 3 30 30 0 23 5 30 19 30 20 0 35 25 25 42 -3 5 -13 6 -23 2 -9 -4
-27 -6 -40 -5 -13 0 -30 -4 -37 -10 -9 -7 -14 -8 -14 -1 0 11 -35 19 -68 14z"/>
<path d="M1588 289 c-25 -14 -22 -48 5 -59 l22 -9 -22 0 c-30 -1 -30 -29 0
-36 12 -4 35 -1 50 4 33 13 37 48 5 60 l-22 8 22 5 c28 8 28 24 0 32 -31 8
-40 7 -60 -5z"/>
<path d="M1710 287 c-36 -18 -40 -70 -7 -92 56 -37 125 26 85 77 -19 23 -50
29 -78 15z m27 -64 c-3 -10 -5 -2 -5 17 0 19 2 27 5 18 2 -10 2 -26 0 -35z"/>
<path d="M1848 293 l-38 -4 0 -50 c0 -45 2 -49 24 -49 22 0 25 5 29 43 l4 42
1 -42 c2 -39 5 -43 27 -43 23 0 25 3 25 49 0 35 -4 51 -16 55 -9 3 -16 5 -17
4 -1 -1 -19 -3 -39 -5z"/>
</g>
</svg>
